<mxfile host="Electron" modified="2023-06-21T22:46:17.472Z" agent="Mozilla/5.0 (X11; Linux x86_64) AppleWebKit/537.36 (KHTML, like Gecko) draw.io/21.4.0 Chrome/112.0.5615.204 Electron/24.5.1 Safari/537.36" etag="ny0X-MjrQdZC_nwYulch" version="21.4.0" type="device" pages="4">
  <diagram id="hJk5ntb2C3RmJXUBQjZ3" name="Deployment Diagram">
    <mxGraphModel dx="2074" dy="878" grid="1" gridSize="10" guides="1" tooltips="1" connect="1" arrows="1" fold="1" page="1" pageScale="1" pageWidth="1169" pageHeight="1654" math="0" shadow="0">
      <root>
        <mxCell id="0qiFJK3XB3MApJSNWIeW-0" />
        <mxCell id="0qiFJK3XB3MApJSNWIeW-1" parent="0qiFJK3XB3MApJSNWIeW-0" />
        <mxCell id="0qiFJK3XB3MApJSNWIeW-56" value="&lt;div style=&quot;text-align: left&quot;&gt;&lt;span&gt;LiloDash - Deployment Diagram&lt;/span&gt;&lt;/div&gt;&lt;div style=&quot;text-align: left&quot;&gt;&lt;span&gt;Author: Bruno Crema Ferreira&lt;/span&gt;&lt;/div&gt;&lt;div style=&quot;text-align: left&quot;&gt;&lt;span&gt;Last Update: 06/28/2021&lt;/span&gt;&lt;/div&gt;" style="shape=umlFrame;whiteSpace=wrap;html=1;strokeColor=#000000;gradientColor=#ffffff;width=190;height=50;" parent="0qiFJK3XB3MApJSNWIeW-1" vertex="1">
          <mxGeometry x="200" y="50" width="830" height="1540" as="geometry" />
        </mxCell>
        <mxCell id="0qiFJK3XB3MApJSNWIeW-12" value=".NET Core Container" style="verticalAlign=top;align=left;spacingTop=8;spacingLeft=2;spacingRight=12;shape=cube;size=10;direction=south;fontStyle=4;html=1;fillColor=#dae8fc;gradientColor=#ffffff;" parent="0qiFJK3XB3MApJSNWIeW-1" vertex="1">
          <mxGeometry x="680" y="375" width="290" height="355" as="geometry" />
        </mxCell>
        <mxCell id="0qiFJK3XB3MApJSNWIeW-3" value="NodeJs Container" style="verticalAlign=top;align=left;spacingTop=8;spacingLeft=2;spacingRight=12;shape=cube;size=10;direction=south;fontStyle=4;html=1;fillColor=#dae8fc;gradientColor=#ffffff;" parent="0qiFJK3XB3MApJSNWIeW-1" vertex="1">
          <mxGeometry x="670" y="90" width="300" height="200" as="geometry" />
        </mxCell>
        <mxCell id="0qiFJK3XB3MApJSNWIeW-4" value="«REST API»&lt;br&gt;&lt;b&gt;LiloDash.API&lt;/b&gt;" style="html=1;dropTarget=0;fillColor=#fff2cc;gradientColor=#ffffff;gradientDirection=west;" parent="0qiFJK3XB3MApJSNWIeW-1" vertex="1">
          <mxGeometry x="730" y="600" width="180" height="90" as="geometry" />
        </mxCell>
        <mxCell id="0qiFJK3XB3MApJSNWIeW-5" value="" style="shape=module;jettyWidth=8;jettyHeight=4;" parent="0qiFJK3XB3MApJSNWIeW-4" vertex="1">
          <mxGeometry x="1" width="20" height="20" relative="1" as="geometry">
            <mxPoint x="-27" y="7" as="offset" />
          </mxGeometry>
        </mxCell>
        <mxCell id="0qiFJK3XB3MApJSNWIeW-6" value="«Angular WebApp»&lt;br&gt;&lt;b&gt;LiloDash.Web&lt;/b&gt;" style="html=1;dropTarget=0;fillColor=#fff2cc;gradientColor=#ffffff;gradientDirection=west;" parent="0qiFJK3XB3MApJSNWIeW-1" vertex="1">
          <mxGeometry x="720" y="160" width="180" height="90" as="geometry" />
        </mxCell>
        <mxCell id="0qiFJK3XB3MApJSNWIeW-7" value="" style="shape=module;jettyWidth=8;jettyHeight=4;" parent="0qiFJK3XB3MApJSNWIeW-6" vertex="1">
          <mxGeometry x="1" width="20" height="20" relative="1" as="geometry">
            <mxPoint x="-27" y="7" as="offset" />
          </mxGeometry>
        </mxCell>
        <mxCell id="0qiFJK3XB3MApJSNWIeW-9" value="RabbitMq Container" style="verticalAlign=top;align=left;spacingTop=8;spacingLeft=2;spacingRight=12;shape=cube;size=10;direction=south;fontStyle=4;html=1;fillColor=#dae8fc;gradientColor=#ffffff;" parent="0qiFJK3XB3MApJSNWIeW-1" vertex="1">
          <mxGeometry x="265" y="720" width="360" height="230" as="geometry" />
        </mxCell>
        <mxCell id="0qiFJK3XB3MApJSNWIeW-10" value="«Blackboard»&lt;br&gt;&lt;b&gt;RabbitMq&lt;/b&gt;" style="html=1;dropTarget=0;fillColor=#fff2cc;gradientColor=#ffffff;gradientDirection=west;" parent="0qiFJK3XB3MApJSNWIeW-1" vertex="1">
          <mxGeometry x="335" y="800" width="180" height="90" as="geometry" />
        </mxCell>
        <mxCell id="0qiFJK3XB3MApJSNWIeW-11" value="" style="shape=module;jettyWidth=8;jettyHeight=4;" parent="0qiFJK3XB3MApJSNWIeW-10" vertex="1">
          <mxGeometry x="1" width="20" height="20" relative="1" as="geometry">
            <mxPoint x="-27" y="7" as="offset" />
          </mxGeometry>
        </mxCell>
        <mxCell id="0qiFJK3XB3MApJSNWIeW-13" value=".Net Core Container" style="verticalAlign=top;align=left;spacingTop=8;spacingLeft=2;spacingRight=12;shape=cube;size=10;direction=south;fontStyle=4;html=1;fillColor=#dae8fc;gradientColor=#ffffff;" parent="0qiFJK3XB3MApJSNWIeW-1" vertex="1">
          <mxGeometry x="260" y="375" width="360" height="235" as="geometry" />
        </mxCell>
        <mxCell id="0qiFJK3XB3MApJSNWIeW-14" value="«Unix Daemon»&lt;br&gt;&lt;b&gt;LiloDash.ServiceBroker&lt;/b&gt;" style="html=1;dropTarget=0;fillColor=#fff2cc;gradientColor=#ffffff;gradientDirection=west;" parent="0qiFJK3XB3MApJSNWIeW-1" vertex="1">
          <mxGeometry x="330" y="455" width="180" height="90" as="geometry" />
        </mxCell>
        <mxCell id="0qiFJK3XB3MApJSNWIeW-15" value="" style="shape=module;jettyWidth=8;jettyHeight=4;" parent="0qiFJK3XB3MApJSNWIeW-14" vertex="1">
          <mxGeometry x="1" width="20" height="20" relative="1" as="geometry">
            <mxPoint x="-27" y="7" as="offset" />
          </mxGeometry>
        </mxCell>
        <mxCell id="0qiFJK3XB3MApJSNWIeW-16" value="" style="endArrow=none;html=1;exitX=-0.005;exitY=0.585;exitDx=0;exitDy=0;exitPerimeter=0;entryX=1.006;entryY=0.571;entryDx=0;entryDy=0;entryPerimeter=0;" parent="0qiFJK3XB3MApJSNWIeW-1" source="0qiFJK3XB3MApJSNWIeW-9" target="0qiFJK3XB3MApJSNWIeW-13" edge="1">
          <mxGeometry width="50" height="50" relative="1" as="geometry">
            <mxPoint x="390" y="700" as="sourcePoint" />
            <mxPoint x="440" y="650" as="targetPoint" />
          </mxGeometry>
        </mxCell>
        <mxCell id="0qiFJK3XB3MApJSNWIeW-17" value="HTTPS" style="text;html=1;align=center;verticalAlign=middle;resizable=0;points=[];autosize=1;strokeColor=none;" parent="0qiFJK3XB3MApJSNWIeW-1" vertex="1">
          <mxGeometry x="415" y="650" width="50" height="20" as="geometry" />
        </mxCell>
        <mxCell id="0qiFJK3XB3MApJSNWIeW-18" value="1" style="text;html=1;align=center;verticalAlign=middle;resizable=0;points=[];autosize=1;strokeColor=none;" parent="0qiFJK3XB3MApJSNWIeW-1" vertex="1">
          <mxGeometry x="414" y="696" width="20" height="20" as="geometry" />
        </mxCell>
        <mxCell id="0qiFJK3XB3MApJSNWIeW-19" value="1..*" style="text;html=1;align=center;verticalAlign=middle;resizable=0;points=[];autosize=1;strokeColor=none;" parent="0qiFJK3XB3MApJSNWIeW-1" vertex="1">
          <mxGeometry x="415" y="610" width="30" height="20" as="geometry" />
        </mxCell>
        <mxCell id="0qiFJK3XB3MApJSNWIeW-20" value="" style="endArrow=none;html=1;entryX=1.005;entryY=0.703;entryDx=0;entryDy=0;entryPerimeter=0;exitX=0.004;exitY=0.727;exitDx=0;exitDy=0;exitPerimeter=0;" parent="0qiFJK3XB3MApJSNWIeW-1" source="0qiFJK3XB3MApJSNWIeW-12" target="0qiFJK3XB3MApJSNWIeW-3" edge="1">
          <mxGeometry width="50" height="50" relative="1" as="geometry">
            <mxPoint x="778" y="370" as="sourcePoint" />
            <mxPoint x="810" y="580" as="targetPoint" />
          </mxGeometry>
        </mxCell>
        <mxCell id="0qiFJK3XB3MApJSNWIeW-21" value="HTTPS" style="text;html=1;align=center;verticalAlign=middle;resizable=0;points=[];autosize=1;strokeColor=none;" parent="0qiFJK3XB3MApJSNWIeW-1" vertex="1">
          <mxGeometry x="760" y="320" width="50" height="20" as="geometry" />
        </mxCell>
        <mxCell id="0qiFJK3XB3MApJSNWIeW-23" value="«REST API»&lt;br&gt;&lt;b&gt;LiloDash.API.Gateway&lt;/b&gt;" style="html=1;dropTarget=0;fillColor=#fff2cc;gradientColor=#ffffff;gradientDirection=west;" parent="0qiFJK3XB3MApJSNWIeW-1" vertex="1">
          <mxGeometry x="730" y="455" width="180" height="90" as="geometry" />
        </mxCell>
        <mxCell id="0qiFJK3XB3MApJSNWIeW-24" value="" style="shape=module;jettyWidth=8;jettyHeight=4;" parent="0qiFJK3XB3MApJSNWIeW-23" vertex="1">
          <mxGeometry x="1" width="20" height="20" relative="1" as="geometry">
            <mxPoint x="-27" y="7" as="offset" />
          </mxGeometry>
        </mxCell>
        <mxCell id="0qiFJK3XB3MApJSNWIeW-25" value="" style="endArrow=open;endSize=12;dashed=1;html=1;entryX=0.467;entryY=0;entryDx=0;entryDy=0;entryPerimeter=0;exitX=0.5;exitY=1;exitDx=0;exitDy=0;" parent="0qiFJK3XB3MApJSNWIeW-1" source="0qiFJK3XB3MApJSNWIeW-6" target="0qiFJK3XB3MApJSNWIeW-23" edge="1">
          <mxGeometry y="10" width="160" relative="1" as="geometry">
            <mxPoint x="814" y="289" as="sourcePoint" />
            <mxPoint x="790" y="680" as="targetPoint" />
            <mxPoint as="offset" />
          </mxGeometry>
        </mxCell>
        <mxCell id="0qiFJK3XB3MApJSNWIeW-26" value="" style="endArrow=open;endSize=12;dashed=1;html=1;exitX=0.5;exitY=1;exitDx=0;exitDy=0;" parent="0qiFJK3XB3MApJSNWIeW-1" source="0qiFJK3XB3MApJSNWIeW-23" target="0qiFJK3XB3MApJSNWIeW-4" edge="1">
          <mxGeometry y="10" width="160" relative="1" as="geometry">
            <mxPoint x="769.7" y="669.9999999999998" as="sourcePoint" />
            <mxPoint x="870.3" y="858.2499999999998" as="targetPoint" />
            <mxPoint as="offset" />
          </mxGeometry>
        </mxCell>
        <mxCell id="0qiFJK3XB3MApJSNWIeW-27" value="" style="endArrow=open;endSize=12;dashed=1;html=1;exitX=0;exitY=0.5;exitDx=0;exitDy=0;entryX=1.011;entryY=0.444;entryDx=0;entryDy=0;entryPerimeter=0;" parent="0qiFJK3XB3MApJSNWIeW-1" source="0qiFJK3XB3MApJSNWIeW-4" target="0qiFJK3XB3MApJSNWIeW-14" edge="1">
          <mxGeometry y="10" width="160" relative="1" as="geometry">
            <mxPoint x="752.52" y="274.67999999999984" as="sourcePoint" />
            <mxPoint x="520" y="520" as="targetPoint" />
            <mxPoint as="offset" />
          </mxGeometry>
        </mxCell>
        <mxCell id="0qiFJK3XB3MApJSNWIeW-28" value="" style="endArrow=open;endSize=12;dashed=1;html=1;exitX=0.623;exitY=1.016;exitDx=0;exitDy=0;exitPerimeter=0;entryX=0.813;entryY=-0.028;entryDx=0;entryDy=0;entryPerimeter=0;" parent="0qiFJK3XB3MApJSNWIeW-1" source="0qiFJK3XB3MApJSNWIeW-14" target="0qiFJK3XB3MApJSNWIeW-10" edge="1">
          <mxGeometry y="10" width="160" relative="1" as="geometry">
            <mxPoint x="490" y="579.9999999999998" as="sourcePoint" />
            <mxPoint x="590.5999999999999" y="768.2499999999998" as="targetPoint" />
            <mxPoint as="offset" />
          </mxGeometry>
        </mxCell>
        <mxCell id="0qiFJK3XB3MApJSNWIeW-29" value="PostgreSql Container" style="verticalAlign=top;align=left;spacingTop=8;spacingLeft=2;spacingRight=12;shape=cube;size=10;direction=south;fontStyle=4;html=1;fillColor=#dae8fc;gradientColor=#ffffff;" parent="0qiFJK3XB3MApJSNWIeW-1" vertex="1">
          <mxGeometry x="670" y="760" width="300" height="200" as="geometry" />
        </mxCell>
        <mxCell id="0qiFJK3XB3MApJSNWIeW-32" value="&amp;lt;&amp;lt;Schema&amp;gt;&amp;gt;&lt;br&gt;LiloDash" style="shape=cylinder3;whiteSpace=wrap;html=1;boundedLbl=1;backgroundOutline=1;size=15;fillColor=#d5e8d4;gradientColor=#ffffff;" parent="0qiFJK3XB3MApJSNWIeW-1" vertex="1">
          <mxGeometry x="770" y="830" width="90" height="90" as="geometry" />
        </mxCell>
        <mxCell id="0qiFJK3XB3MApJSNWIeW-33" value="" style="endArrow=open;endSize=12;dashed=1;html=1;exitX=0.461;exitY=1.011;exitDx=0;exitDy=0;exitPerimeter=0;entryX=0.504;entryY=0.03;entryDx=0;entryDy=0;entryPerimeter=0;" parent="0qiFJK3XB3MApJSNWIeW-1" source="0qiFJK3XB3MApJSNWIeW-4" target="0qiFJK3XB3MApJSNWIeW-32" edge="1">
          <mxGeometry y="10" width="160" relative="1" as="geometry">
            <mxPoint x="814.5" y="740" as="sourcePoint" />
            <mxPoint x="815" y="840" as="targetPoint" />
            <mxPoint as="offset" />
          </mxGeometry>
        </mxCell>
        <mxCell id="0qiFJK3XB3MApJSNWIeW-34" value="" style="endArrow=none;html=1;entryX=0.556;entryY=-0.008;entryDx=0;entryDy=0;entryPerimeter=0;exitX=0.37;exitY=0.99;exitDx=0;exitDy=0;exitPerimeter=0;" parent="0qiFJK3XB3MApJSNWIeW-1" edge="1">
          <mxGeometry width="50" height="50" relative="1" as="geometry">
            <mxPoint x="679.8999999999999" y="506.3499999999999" as="sourcePoint" />
            <mxPoint x="619.8800000000001" y="505.65999999999985" as="targetPoint" />
          </mxGeometry>
        </mxCell>
        <mxCell id="0qiFJK3XB3MApJSNWIeW-35" value="HTTPS" style="text;html=1;align=center;verticalAlign=middle;resizable=0;points=[];autosize=1;strokeColor=none;" parent="0qiFJK3XB3MApJSNWIeW-1" vertex="1">
          <mxGeometry x="625" y="482.5" width="50" height="20" as="geometry" />
        </mxCell>
        <mxCell id="0qiFJK3XB3MApJSNWIeW-37" value="" style="endArrow=none;html=1;entryX=1.005;entryY=0.703;entryDx=0;entryDy=0;entryPerimeter=0;" parent="0qiFJK3XB3MApJSNWIeW-1" edge="1">
          <mxGeometry width="50" height="50" relative="1" as="geometry">
            <mxPoint x="840" y="760" as="sourcePoint" />
            <mxPoint x="840.0000000000001" y="730" as="targetPoint" />
          </mxGeometry>
        </mxCell>
        <mxCell id="0qiFJK3XB3MApJSNWIeW-38" value="HTTPS" style="text;html=1;align=center;verticalAlign=middle;resizable=0;points=[];autosize=1;strokeColor=none;" parent="0qiFJK3XB3MApJSNWIeW-1" vertex="1">
          <mxGeometry x="838" y="734" width="50" height="20" as="geometry" />
        </mxCell>
        <mxCell id="0qiFJK3XB3MApJSNWIeW-39" value="" style="ellipse;shape=cloud;whiteSpace=wrap;html=1;fillColor=#dae8fc;gradientColor=#ffffff;" parent="0qiFJK3XB3MApJSNWIeW-1" vertex="1">
          <mxGeometry x="340" y="1040" width="160" height="90" as="geometry" />
        </mxCell>
        <mxCell id="0qiFJK3XB3MApJSNWIeW-41" value="" style="endArrow=none;html=1;exitX=0.459;exitY=0.089;exitDx=0;exitDy=0;exitPerimeter=0;entryX=1.007;entryY=0.589;entryDx=0;entryDy=0;entryPerimeter=0;" parent="0qiFJK3XB3MApJSNWIeW-1" source="0qiFJK3XB3MApJSNWIeW-39" target="0qiFJK3XB3MApJSNWIeW-9" edge="1">
          <mxGeometry width="50" height="50" relative="1" as="geometry">
            <mxPoint x="414" y="1067.4399999999998" as="sourcePoint" />
            <mxPoint x="414.0400000000002" y="959.9999999999998" as="targetPoint" />
          </mxGeometry>
        </mxCell>
        <mxCell id="0qiFJK3XB3MApJSNWIeW-42" value="MQTT" style="text;html=1;align=center;verticalAlign=middle;resizable=0;points=[];autosize=1;strokeColor=none;" parent="0qiFJK3XB3MApJSNWIeW-1" vertex="1">
          <mxGeometry x="414" y="1000" width="50" height="20" as="geometry" />
        </mxCell>
        <mxCell id="0qiFJK3XB3MApJSNWIeW-43" value="&amp;lt;&amp;lt;Device&amp;gt;&amp;gt;&lt;br&gt;OnionOmega2" style="verticalAlign=top;align=left;spacingTop=8;spacingLeft=2;spacingRight=12;shape=cube;size=10;direction=south;fontStyle=4;html=1;fillColor=#dae8fc;gradientColor=#ffffff;" parent="0qiFJK3XB3MApJSNWIeW-1" vertex="1">
          <mxGeometry x="670" y="1000" width="300" height="520" as="geometry" />
        </mxCell>
        <mxCell id="0qiFJK3XB3MApJSNWIeW-44" value="" style="endArrow=none;html=1;exitX=0.881;exitY=0.505;exitDx=0;exitDy=0;exitPerimeter=0;" parent="0qiFJK3XB3MApJSNWIeW-1" source="0qiFJK3XB3MApJSNWIeW-39" edge="1">
          <mxGeometry width="50" height="50" relative="1" as="geometry">
            <mxPoint x="480" y="1089" as="sourcePoint" />
            <mxPoint x="671" y="1086" as="targetPoint" />
          </mxGeometry>
        </mxCell>
        <mxCell id="0qiFJK3XB3MApJSNWIeW-45" value="MQTT" style="text;html=1;align=center;verticalAlign=middle;resizable=0;points=[];autosize=1;strokeColor=none;" parent="0qiFJK3XB3MApJSNWIeW-1" vertex="1">
          <mxGeometry x="550" y="1066" width="50" height="20" as="geometry" />
        </mxCell>
        <mxCell id="0qiFJK3XB3MApJSNWIeW-46" value="«Blackboard»&lt;br&gt;&lt;b&gt;Mosquitto&lt;/b&gt;" style="html=1;dropTarget=0;fillColor=#fff2cc;gradientColor=#ffffff;gradientDirection=west;" parent="0qiFJK3XB3MApJSNWIeW-1" vertex="1">
          <mxGeometry x="733" y="1060" width="180" height="90" as="geometry" />
        </mxCell>
        <mxCell id="0qiFJK3XB3MApJSNWIeW-47" value="" style="shape=module;jettyWidth=8;jettyHeight=4;" parent="0qiFJK3XB3MApJSNWIeW-46" vertex="1">
          <mxGeometry x="1" width="20" height="20" relative="1" as="geometry">
            <mxPoint x="-27" y="7" as="offset" />
          </mxGeometry>
        </mxCell>
        <mxCell id="0qiFJK3XB3MApJSNWIeW-48" value="«Unix Daemon»&lt;br&gt;&lt;b&gt;PowerMeter&lt;/b&gt;" style="html=1;dropTarget=0;fillColor=#fff2cc;gradientColor=#ffffff;gradientDirection=west;" parent="0qiFJK3XB3MApJSNWIeW-1" vertex="1">
          <mxGeometry x="735" y="1190" width="180" height="90" as="geometry" />
        </mxCell>
        <mxCell id="0qiFJK3XB3MApJSNWIeW-49" value="" style="shape=module;jettyWidth=8;jettyHeight=4;" parent="0qiFJK3XB3MApJSNWIeW-48" vertex="1">
          <mxGeometry x="1" width="20" height="20" relative="1" as="geometry">
            <mxPoint x="-27" y="7" as="offset" />
          </mxGeometry>
        </mxCell>
        <mxCell id="0qiFJK3XB3MApJSNWIeW-50" value="Node JS" style="verticalAlign=top;align=left;spacingTop=8;spacingLeft=2;spacingRight=12;shape=cube;size=10;direction=south;fontStyle=4;html=1;fillColor=#d5e8d4;gradientColor=#ffffff;" parent="0qiFJK3XB3MApJSNWIeW-1" vertex="1">
          <mxGeometry x="695" y="1320" width="245" height="170" as="geometry" />
        </mxCell>
        <mxCell id="0qiFJK3XB3MApJSNWIeW-51" value="«Angular WebApp»&lt;br&gt;&lt;b&gt;LiloDevice&lt;/b&gt;" style="html=1;dropTarget=0;fillColor=#fff2cc;gradientColor=#ffffff;gradientDirection=west;" parent="0qiFJK3XB3MApJSNWIeW-1" vertex="1">
          <mxGeometry x="720" y="1370" width="180" height="90" as="geometry" />
        </mxCell>
        <mxCell id="0qiFJK3XB3MApJSNWIeW-52" value="" style="shape=module;jettyWidth=8;jettyHeight=4;" parent="0qiFJK3XB3MApJSNWIeW-51" vertex="1">
          <mxGeometry x="1" width="20" height="20" relative="1" as="geometry">
            <mxPoint x="-27" y="7" as="offset" />
          </mxGeometry>
        </mxCell>
        <mxCell id="0qiFJK3XB3MApJSNWIeW-53" value="" style="endArrow=open;endSize=12;dashed=1;html=1;exitX=0.5;exitY=0;exitDx=0;exitDy=0;" parent="0qiFJK3XB3MApJSNWIeW-1" source="0qiFJK3XB3MApJSNWIeW-48" edge="1">
          <mxGeometry y="10" width="160" relative="1" as="geometry">
            <mxPoint x="823.8100000000001" y="1209.9999999999998" as="sourcePoint" />
            <mxPoint x="826" y="1150" as="targetPoint" />
            <mxPoint as="offset" />
          </mxGeometry>
        </mxCell>
        <mxCell id="0qiFJK3XB3MApJSNWIeW-54" value="*" style="text;html=1;align=center;verticalAlign=middle;resizable=0;points=[];autosize=1;strokeColor=none;" parent="0qiFJK3XB3MApJSNWIeW-1" vertex="1">
          <mxGeometry x="650" y="1086" width="20" height="20" as="geometry" />
        </mxCell>
        <mxCell id="0qiFJK3XB3MApJSNWIeW-55" value="1" style="text;html=1;align=center;verticalAlign=middle;resizable=0;points=[];autosize=1;strokeColor=none;" parent="0qiFJK3XB3MApJSNWIeW-1" vertex="1">
          <mxGeometry x="495" y="1086" width="20" height="20" as="geometry" />
        </mxCell>
      </root>
    </mxGraphModel>
  </diagram>
  <diagram id="A_A23RIKMzNLvcI5Yy00" name="General Class Diagram">
    <mxGraphModel dx="2074" dy="878" grid="1" gridSize="10" guides="1" tooltips="1" connect="1" arrows="1" fold="1" page="1" pageScale="1" pageWidth="850" pageHeight="1100" math="0" shadow="0">
      <root>
        <mxCell id="0" />
        <mxCell id="1" parent="0" />
        <mxCell id="Qi4Coh580DmBgGV_cQeW-5" value="Building" style="swimlane;fontStyle=0;childLayout=stackLayout;horizontal=1;startSize=26;fillColor=none;horizontalStack=0;resizeParent=1;resizeParentMax=0;resizeLast=0;collapsible=1;marginBottom=0;" parent="1" vertex="1">
          <mxGeometry x="355" y="330" width="140" height="78" as="geometry" />
        </mxCell>
        <mxCell id="Qi4Coh580DmBgGV_cQeW-6" value="+ Id: Guid" style="text;strokeColor=none;fillColor=none;align=left;verticalAlign=top;spacingLeft=4;spacingRight=4;overflow=hidden;rotatable=0;points=[[0,0.5],[1,0.5]];portConstraint=eastwest;" parent="Qi4Coh580DmBgGV_cQeW-5" vertex="1">
          <mxGeometry y="26" width="140" height="26" as="geometry" />
        </mxCell>
        <mxCell id="Qi4Coh580DmBgGV_cQeW-7" value="+ Name: String" style="text;strokeColor=none;fillColor=none;align=left;verticalAlign=top;spacingLeft=4;spacingRight=4;overflow=hidden;rotatable=0;points=[[0,0.5],[1,0.5]];portConstraint=eastwest;" parent="Qi4Coh580DmBgGV_cQeW-5" vertex="1">
          <mxGeometry y="52" width="140" height="26" as="geometry" />
        </mxCell>
        <mxCell id="Qi4Coh580DmBgGV_cQeW-9" value="BuildingRoom" style="swimlane;fontStyle=0;childLayout=stackLayout;horizontal=1;startSize=26;fillColor=none;horizontalStack=0;resizeParent=1;resizeParentMax=0;resizeLast=0;collapsible=1;marginBottom=0;" parent="1" vertex="1">
          <mxGeometry x="530" y="450" width="140" height="78" as="geometry" />
        </mxCell>
        <mxCell id="Qi4Coh580DmBgGV_cQeW-10" value="+ Id: Guid" style="text;strokeColor=none;fillColor=none;align=left;verticalAlign=top;spacingLeft=4;spacingRight=4;overflow=hidden;rotatable=0;points=[[0,0.5],[1,0.5]];portConstraint=eastwest;" parent="Qi4Coh580DmBgGV_cQeW-9" vertex="1">
          <mxGeometry y="26" width="140" height="26" as="geometry" />
        </mxCell>
        <mxCell id="Qi4Coh580DmBgGV_cQeW-11" value="+ Name: String" style="text;strokeColor=none;fillColor=none;align=left;verticalAlign=top;spacingLeft=4;spacingRight=4;overflow=hidden;rotatable=0;points=[[0,0.5],[1,0.5]];portConstraint=eastwest;" parent="Qi4Coh580DmBgGV_cQeW-9" vertex="1">
          <mxGeometry y="52" width="140" height="26" as="geometry" />
        </mxCell>
        <mxCell id="Qi4Coh580DmBgGV_cQeW-13" value="" style="endArrow=diamondThin;endFill=1;endSize=24;html=1;entryX=1.004;entryY=0.629;entryDx=0;entryDy=0;entryPerimeter=0;exitX=0.5;exitY=0;exitDx=0;exitDy=0;" parent="1" source="Qi4Coh580DmBgGV_cQeW-9" target="Qi4Coh580DmBgGV_cQeW-6" edge="1">
          <mxGeometry width="160" relative="1" as="geometry">
            <mxPoint x="540" y="370" as="sourcePoint" />
            <mxPoint x="420" y="370" as="targetPoint" />
            <Array as="points">
              <mxPoint x="600" y="372" />
            </Array>
          </mxGeometry>
        </mxCell>
        <mxCell id="Qi4Coh580DmBgGV_cQeW-14" value="1..*" style="text;html=1;align=center;verticalAlign=middle;resizable=0;points=[];autosize=1;strokeColor=none;" parent="1" vertex="1">
          <mxGeometry x="600" y="430" width="30" height="20" as="geometry" />
        </mxCell>
        <mxCell id="Qi4Coh580DmBgGV_cQeW-15" value="" style="endArrow=diamondThin;endFill=1;endSize=24;html=1;entryX=0.496;entryY=1.045;entryDx=0;entryDy=0;entryPerimeter=0;exitX=1.01;exitY=0.592;exitDx=0;exitDy=0;exitPerimeter=0;" parent="1" source="Qi4Coh580DmBgGV_cQeW-17" target="Qi4Coh580DmBgGV_cQeW-11" edge="1">
          <mxGeometry width="160" relative="1" as="geometry">
            <mxPoint x="600" y="640" as="sourcePoint" />
            <mxPoint x="610" y="620" as="targetPoint" />
            <Array as="points">
              <mxPoint x="599" y="631" />
            </Array>
          </mxGeometry>
        </mxCell>
        <mxCell id="Qi4Coh580DmBgGV_cQeW-16" value="BuildingRoomDevices" style="swimlane;fontStyle=0;childLayout=stackLayout;horizontal=1;startSize=26;fillColor=none;horizontalStack=0;resizeParent=1;resizeParentMax=0;resizeLast=0;collapsible=1;marginBottom=0;" parent="1" vertex="1">
          <mxGeometry x="355" y="590" width="140" height="78" as="geometry" />
        </mxCell>
        <mxCell id="Qi4Coh580DmBgGV_cQeW-17" value="+ Id: Guid" style="text;strokeColor=none;fillColor=none;align=left;verticalAlign=top;spacingLeft=4;spacingRight=4;overflow=hidden;rotatable=0;points=[[0,0.5],[1,0.5]];portConstraint=eastwest;" parent="Qi4Coh580DmBgGV_cQeW-16" vertex="1">
          <mxGeometry y="26" width="140" height="26" as="geometry" />
        </mxCell>
        <mxCell id="Qi4Coh580DmBgGV_cQeW-18" value="+ Name: String" style="text;strokeColor=none;fillColor=none;align=left;verticalAlign=top;spacingLeft=4;spacingRight=4;overflow=hidden;rotatable=0;points=[[0,0.5],[1,0.5]];portConstraint=eastwest;" parent="Qi4Coh580DmBgGV_cQeW-16" vertex="1">
          <mxGeometry y="52" width="140" height="26" as="geometry" />
        </mxCell>
        <mxCell id="Qi4Coh580DmBgGV_cQeW-19" value="*" style="text;html=1;align=center;verticalAlign=middle;resizable=0;points=[];autosize=1;strokeColor=none;" parent="1" vertex="1">
          <mxGeometry x="508" y="613" width="20" height="20" as="geometry" />
        </mxCell>
      </root>
    </mxGraphModel>
  </diagram>
  <diagram id="oLmhQyzgXvqz5eLxHLvW" name="CQRS">
    <mxGraphModel dx="3191" dy="2520" grid="1" gridSize="20" guides="1" tooltips="1" connect="1" arrows="1" fold="1" page="1" pageScale="1" pageWidth="1654" pageHeight="1169" math="0" shadow="0">
      <root>
        <mxCell id="qvjjFlWtiX74xY5obH8d-0" />
        <mxCell id="qvjjFlWtiX74xY5obH8d-1" parent="qvjjFlWtiX74xY5obH8d-0" />
        <mxCell id="qvjjFlWtiX74xY5obH8d-13" value="" style="rounded=0;whiteSpace=wrap;html=1;gradientColor=#ffffff;" parent="qvjjFlWtiX74xY5obH8d-1" vertex="1">
          <mxGeometry x="656.75" y="-833.5" width="680" height="420" as="geometry" />
        </mxCell>
        <mxCell id="qvjjFlWtiX74xY5obH8d-28" value="" style="rounded=1;whiteSpace=wrap;html=1;gradientDirection=west;" parent="qvjjFlWtiX74xY5obH8d-1" vertex="1">
          <mxGeometry x="676.75" y="-813.5" width="640" height="160" as="geometry" />
        </mxCell>
        <mxCell id="qvjjFlWtiX74xY5obH8d-2" value="" style="rounded=0;whiteSpace=wrap;html=1;" parent="qvjjFlWtiX74xY5obH8d-1" vertex="1">
          <mxGeometry x="321.75" y="-943.5" width="315" height="530" as="geometry" />
        </mxCell>
        <mxCell id="qvjjFlWtiX74xY5obH8d-3" value="LiloDash.Infra" style="text;html=1;align=center;verticalAlign=middle;resizable=0;points=[];autosize=1;strokeColor=none;fillColor=none;" parent="qvjjFlWtiX74xY5obH8d-1" vertex="1">
          <mxGeometry x="429.25" y="-943.5" width="100" height="50" as="geometry" />
        </mxCell>
        <mxCell id="qvjjFlWtiX74xY5obH8d-4" value="&amp;lt;&amp;lt;Concrete Project Implementation&amp;gt;&amp;gt;&lt;br&gt;Data.&lt;b&gt;ExternalApiIntegrationProject&lt;/b&gt;" style="rounded=1;whiteSpace=wrap;html=1;horizontal=0;fillColor=#d5e8d4;gradientColor=#ffffff;dashed=1;" parent="qvjjFlWtiX74xY5obH8d-1" vertex="1">
          <mxGeometry x="336.75" y="-893.5" width="50" height="450" as="geometry" />
        </mxCell>
        <mxCell id="qvjjFlWtiX74xY5obH8d-5" value="&lt;b&gt;Data&lt;/b&gt;" style="rounded=1;whiteSpace=wrap;html=1;horizontal=0;fillColor=#fff2cc;gradientColor=#ffffff;" parent="qvjjFlWtiX74xY5obH8d-1" vertex="1">
          <mxGeometry x="408.25" y="-893.5" width="50" height="450" as="geometry" />
        </mxCell>
        <mxCell id="qvjjFlWtiX74xY5obH8d-6" value="CrossCutting.&lt;b&gt;IOC&lt;/b&gt;" style="rounded=1;whiteSpace=wrap;html=1;horizontal=0;fillColor=#fff2cc;gradientColor=#ffffff;" parent="qvjjFlWtiX74xY5obH8d-1" vertex="1">
          <mxGeometry x="479.25" y="-893.5" width="50" height="450" as="geometry" />
        </mxCell>
        <mxCell id="qvjjFlWtiX74xY5obH8d-7" value="CrossCutting.&lt;b&gt;Environment&lt;/b&gt;" style="rounded=1;whiteSpace=wrap;html=1;horizontal=0;fillColor=#fff2cc;gradientColor=#ffffff;" parent="qvjjFlWtiX74xY5obH8d-1" vertex="1">
          <mxGeometry x="551.25" y="-893.5" width="50" height="450" as="geometry" />
        </mxCell>
        <mxCell id="qvjjFlWtiX74xY5obH8d-8" value="API" style="ellipse;shape=cloud;whiteSpace=wrap;html=1;fillColor=#d5e8d4;strokeColor=#82b366;gradientColor=#ffffff;dashed=1;" parent="qvjjFlWtiX74xY5obH8d-1" vertex="1">
          <mxGeometry x="286.25" y="-393.5" width="120" height="80" as="geometry" />
        </mxCell>
        <mxCell id="qvjjFlWtiX74xY5obH8d-9" value="" style="shape=flexArrow;endArrow=classic;startArrow=classic;html=1;exitX=0.625;exitY=0.2;exitDx=0;exitDy=0;exitPerimeter=0;fillColor=#dae8fc;gradientColor=#ffffff;dashed=1;" parent="qvjjFlWtiX74xY5obH8d-1" source="qvjjFlWtiX74xY5obH8d-8" edge="1">
          <mxGeometry width="100" height="100" relative="1" as="geometry">
            <mxPoint x="360.75" y="-373.5" as="sourcePoint" />
            <mxPoint x="361.15999999999997" y="-443.5" as="targetPoint" />
          </mxGeometry>
        </mxCell>
        <mxCell id="qvjjFlWtiX74xY5obH8d-11" value="&amp;lt;&amp;lt;Sql Server&amp;gt;&amp;gt;&lt;br&gt;LiloDb" style="shape=cylinder3;whiteSpace=wrap;html=1;boundedLbl=1;backgroundOutline=1;size=15;fillColor=#dae8fc;strokeColor=#6c8ebf;gradientColor=#ffffff;" parent="qvjjFlWtiX74xY5obH8d-1" vertex="1">
          <mxGeometry x="389.75" y="-313.5" width="87" height="100" as="geometry" />
        </mxCell>
        <mxCell id="qvjjFlWtiX74xY5obH8d-12" value="" style="shape=flexArrow;endArrow=classic;startArrow=classic;html=1;entryX=0.5;entryY=1;entryDx=0;entryDy=0;exitX=0.5;exitY=0;exitDx=0;exitDy=0;exitPerimeter=0;fillColor=#dae8fc;gradientColor=#ffffff;" parent="qvjjFlWtiX74xY5obH8d-1" source="qvjjFlWtiX74xY5obH8d-11" target="qvjjFlWtiX74xY5obH8d-5" edge="1">
          <mxGeometry width="100" height="100" relative="1" as="geometry">
            <mxPoint x="416.75" y="-293.5" as="sourcePoint" />
            <mxPoint x="516.75" y="-393.5" as="targetPoint" />
          </mxGeometry>
        </mxCell>
        <mxCell id="qvjjFlWtiX74xY5obH8d-14" value="" style="rounded=1;whiteSpace=wrap;html=1;gradientDirection=west;" parent="qvjjFlWtiX74xY5obH8d-1" vertex="1">
          <mxGeometry x="676.75" y="-641.5" width="640" height="220" as="geometry" />
        </mxCell>
        <mxCell id="qvjjFlWtiX74xY5obH8d-21" value="Validations" style="rounded=1;whiteSpace=wrap;html=1;fillColor=#fff2cc;gradientColor=#ffffff;gradientDirection=west;" parent="qvjjFlWtiX74xY5obH8d-1" vertex="1">
          <mxGeometry x="696.75" y="-545.5" width="120" height="26" as="geometry" />
        </mxCell>
        <mxCell id="qvjjFlWtiX74xY5obH8d-22" value="Interfaces" style="rounded=1;whiteSpace=wrap;html=1;fillColor=#fff2cc;gradientColor=#ffffff;gradientDirection=west;" parent="qvjjFlWtiX74xY5obH8d-1" vertex="1">
          <mxGeometry x="696.75" y="-511.5" width="120" height="26" as="geometry" />
        </mxCell>
        <mxCell id="qvjjFlWtiX74xY5obH8d-23" value="BrokerMessages" style="rounded=1;whiteSpace=wrap;html=1;fillColor=#fff2cc;gradientColor=#ffffff;gradientDirection=west;" parent="qvjjFlWtiX74xY5obH8d-1" vertex="1">
          <mxGeometry x="948.75" y="-773.5" width="120" height="26" as="geometry" />
        </mxCell>
        <mxCell id="qvjjFlWtiX74xY5obH8d-24" value="Model" style="rounded=1;whiteSpace=wrap;html=1;fillColor=#fff2cc;gradientColor=#ffffff;gradientDirection=west;" parent="qvjjFlWtiX74xY5obH8d-1" vertex="1">
          <mxGeometry x="696.75" y="-580.5" width="120" height="26" as="geometry" />
        </mxCell>
        <mxCell id="qvjjFlWtiX74xY5obH8d-25" value="Interfaces.&lt;b&gt;IRepository&lt;/b&gt;" style="rounded=1;whiteSpace=wrap;html=1;fillColor=#fff2cc;gradientColor=#ffffff;gradientDirection=west;" parent="qvjjFlWtiX74xY5obH8d-1" vertex="1">
          <mxGeometry x="716.75" y="-473.5" width="560" height="34" as="geometry" />
        </mxCell>
        <mxCell id="qvjjFlWtiX74xY5obH8d-26" value="LiloDash.&lt;b&gt;Domain&lt;/b&gt;" style="text;html=1;align=center;verticalAlign=middle;resizable=0;points=[];autosize=1;strokeColor=none;fillColor=none;" parent="qvjjFlWtiX74xY5obH8d-1" vertex="1">
          <mxGeometry x="956.75" y="-636.5" width="120" height="20" as="geometry" />
        </mxCell>
        <mxCell id="qvjjFlWtiX74xY5obH8d-27" value="Command Handlers" style="rounded=1;whiteSpace=wrap;html=1;fillColor=#fff2cc;gradientColor=#ffffff;gradientDirection=west;" parent="qvjjFlWtiX74xY5obH8d-1" vertex="1">
          <mxGeometry x="876.75" y="-602.5" width="300" height="83" as="geometry" />
        </mxCell>
        <mxCell id="qvjjFlWtiX74xY5obH8d-29" value="LiloDash.&lt;b&gt;Application&lt;/b&gt;" style="text;html=1;align=center;verticalAlign=middle;resizable=0;points=[];autosize=1;strokeColor=none;fillColor=none;" parent="qvjjFlWtiX74xY5obH8d-1" vertex="1">
          <mxGeometry x="938.75" y="-810.5" width="140" height="20" as="geometry" />
        </mxCell>
        <mxCell id="qvjjFlWtiX74xY5obH8d-30" value="Commands" style="rounded=1;whiteSpace=wrap;html=1;fillColor=#fff2cc;gradientColor=#ffffff;gradientDirection=west;" parent="qvjjFlWtiX74xY5obH8d-1" vertex="1">
          <mxGeometry x="696.75" y="-616.5" width="120" height="26" as="geometry" />
        </mxCell>
        <mxCell id="qvjjFlWtiX74xY5obH8d-31" value="ViewModel" style="rounded=1;whiteSpace=wrap;html=1;fillColor=#fff2cc;gradientColor=#ffffff;gradientDirection=west;" parent="qvjjFlWtiX74xY5obH8d-1" vertex="1">
          <mxGeometry x="948.75" y="-742.5" width="120" height="26" as="geometry" />
        </mxCell>
        <mxCell id="qvjjFlWtiX74xY5obH8d-32" value="Interfaces" style="rounded=1;whiteSpace=wrap;html=1;fillColor=#fff2cc;gradientColor=#ffffff;gradientDirection=west;" parent="qvjjFlWtiX74xY5obH8d-1" vertex="1">
          <mxGeometry x="948.75" y="-711.5" width="120" height="26" as="geometry" />
        </mxCell>
        <mxCell id="qvjjFlWtiX74xY5obH8d-33" value="Broker Handlers" style="rounded=1;whiteSpace=wrap;html=1;fillColor=#fff2cc;gradientColor=#ffffff;gradientDirection=west;" parent="qvjjFlWtiX74xY5obH8d-1" vertex="1">
          <mxGeometry x="696.75" y="-780.5" width="240" height="100" as="geometry" />
        </mxCell>
        <mxCell id="qvjjFlWtiX74xY5obH8d-35" value="Application Services" style="rounded=1;whiteSpace=wrap;html=1;fillColor=#fff2cc;gradientColor=#ffffff;gradientDirection=west;" parent="qvjjFlWtiX74xY5obH8d-1" vertex="1">
          <mxGeometry x="1078.75" y="-780.5" width="220" height="100" as="geometry" />
        </mxCell>
        <mxCell id="qvjjFlWtiX74xY5obH8d-36" value="" style="shape=flexArrow;endArrow=classic;html=1;entryX=0.595;entryY=0.992;entryDx=0;entryDy=0;entryPerimeter=0;exitX=0.219;exitY=0.012;exitDx=0;exitDy=0;exitPerimeter=0;fillColor=#dae8fc;gradientColor=#ffffff;" parent="qvjjFlWtiX74xY5obH8d-1" source="qvjjFlWtiX74xY5obH8d-25" target="qvjjFlWtiX74xY5obH8d-33" edge="1">
          <mxGeometry width="50" height="50" relative="1" as="geometry">
            <mxPoint x="816.75" y="-503.5" as="sourcePoint" />
            <mxPoint x="866.75" y="-553.5" as="targetPoint" />
          </mxGeometry>
        </mxCell>
        <mxCell id="qvjjFlWtiX74xY5obH8d-37" value="" style="shape=flexArrow;endArrow=classic;html=1;entryX=0.595;entryY=0.992;entryDx=0;entryDy=0;entryPerimeter=0;fillColor=#dae8fc;gradientColor=#ffffff;" parent="qvjjFlWtiX74xY5obH8d-1" edge="1">
          <mxGeometry width="50" height="50" relative="1" as="geometry">
            <mxPoint x="1216.75" y="-472.5" as="sourcePoint" />
            <mxPoint x="1216.9099999999999" y="-680.5" as="targetPoint" />
          </mxGeometry>
        </mxCell>
        <mxCell id="qvjjFlWtiX74xY5obH8d-38" value="" style="shape=flexArrow;endArrow=classic;html=1;entryX=0.079;entryY=-0.013;entryDx=0;entryDy=0;entryPerimeter=0;exitX=0.85;exitY=1.017;exitDx=0;exitDy=0;exitPerimeter=0;fillColor=#dae8fc;gradientColor=#ffffff;" parent="qvjjFlWtiX74xY5obH8d-1" source="qvjjFlWtiX74xY5obH8d-33" target="qvjjFlWtiX74xY5obH8d-27" edge="1">
          <mxGeometry width="50" height="50" relative="1" as="geometry">
            <mxPoint x="879.3899999999999" y="-433.0920000000001" as="sourcePoint" />
            <mxPoint x="879.5499999999997" y="-641.3" as="targetPoint" />
          </mxGeometry>
        </mxCell>
        <mxCell id="qvjjFlWtiX74xY5obH8d-39" value="" style="shape=flexArrow;endArrow=classic;html=1;entryX=0.079;entryY=-0.013;entryDx=0;entryDy=0;entryPerimeter=0;exitX=0.85;exitY=1.017;exitDx=0;exitDy=0;exitPerimeter=0;fillColor=#dae8fc;gradientColor=#ffffff;" parent="qvjjFlWtiX74xY5obH8d-1" edge="1">
          <mxGeometry width="50" height="50" relative="1" as="geometry">
            <mxPoint x="1157.0500000000002" y="-677.72" as="sourcePoint" />
            <mxPoint x="1156.75" y="-602.499" as="targetPoint" />
          </mxGeometry>
        </mxCell>
        <mxCell id="qvjjFlWtiX74xY5obH8d-40" value="" style="shape=flexArrow;endArrow=classic;html=1;entryX=0.079;entryY=-0.013;entryDx=0;entryDy=0;entryPerimeter=0;exitX=0.5;exitY=1;exitDx=0;exitDy=0;fillColor=#dae8fc;gradientColor=#ffffff;" parent="qvjjFlWtiX74xY5obH8d-1" source="qvjjFlWtiX74xY5obH8d-27" edge="1">
          <mxGeometry width="50" height="50" relative="1" as="geometry">
            <mxPoint x="1026.63" y="-548.72" as="sourcePoint" />
            <mxPoint x="1026.33" y="-473.499" as="targetPoint" />
          </mxGeometry>
        </mxCell>
        <mxCell id="qvjjFlWtiX74xY5obH8d-41" value="" style="ellipse;shape=cloud;whiteSpace=wrap;html=1;strokeColor=#000000;gradientColor=none;gradientDirection=west;" parent="qvjjFlWtiX74xY5obH8d-1" vertex="1">
          <mxGeometry x="830.75" y="-413.5" width="312" height="253" as="geometry" />
        </mxCell>
        <mxCell id="qvjjFlWtiX74xY5obH8d-42" value="" style="shape=flexArrow;endArrow=classic;startArrow=classic;html=1;entryX=0.537;entryY=1.051;entryDx=0;entryDy=0;entryPerimeter=0;fillColor=#dae8fc;gradientColor=#ffffff;" parent="qvjjFlWtiX74xY5obH8d-1" target="qvjjFlWtiX74xY5obH8d-25" edge="1">
          <mxGeometry width="100" height="100" relative="1" as="geometry">
            <mxPoint x="1017.75" y="-373.5" as="sourcePoint" />
            <mxPoint x="1116.75" y="-413.5" as="targetPoint" />
          </mxGeometry>
        </mxCell>
        <mxCell id="qvjjFlWtiX74xY5obH8d-43" value="API" style="ellipse;shape=cloud;whiteSpace=wrap;html=1;strokeColor=#000000;gradientColor=none;gradientDirection=west;" parent="qvjjFlWtiX74xY5obH8d-1" vertex="1">
          <mxGeometry x="905.75" y="-353.5" width="100" height="60" as="geometry" />
        </mxCell>
        <mxCell id="qvjjFlWtiX74xY5obH8d-44" value="Storage" style="ellipse;shape=cloud;whiteSpace=wrap;html=1;strokeColor=#000000;gradientColor=none;gradientDirection=west;" parent="qvjjFlWtiX74xY5obH8d-1" vertex="1">
          <mxGeometry x="905.75" y="-273.5" width="100" height="60" as="geometry" />
        </mxCell>
        <mxCell id="qvjjFlWtiX74xY5obH8d-46" value="Database" style="shape=cylinder3;whiteSpace=wrap;html=1;boundedLbl=1;backgroundOutline=1;size=15;strokeColor=#000000;gradientColor=none;gradientDirection=west;" parent="qvjjFlWtiX74xY5obH8d-1" vertex="1">
          <mxGeometry x="1036.75" y="-303.5" width="60" height="80" as="geometry" />
        </mxCell>
        <mxCell id="qvjjFlWtiX74xY5obH8d-47" value="Persistence" style="text;html=1;align=center;verticalAlign=middle;resizable=0;points=[];autosize=1;strokeColor=none;fillColor=none;" parent="qvjjFlWtiX74xY5obH8d-1" vertex="1">
          <mxGeometry x="996.75" y="-353.5" width="100" height="20" as="geometry" />
        </mxCell>
        <mxCell id="qvjjFlWtiX74xY5obH8d-48" value="" style="rounded=0;whiteSpace=wrap;html=1;gradientDirection=west;fillColor=#dae8fc;gradientColor=#ffffff;" parent="qvjjFlWtiX74xY5obH8d-1" vertex="1">
          <mxGeometry x="656.75" y="-893.5" width="680" height="52" as="geometry" />
        </mxCell>
        <mxCell id="qvjjFlWtiX74xY5obH8d-49" value="API.&lt;b&gt;LiloDash&lt;/b&gt;" style="rounded=1;whiteSpace=wrap;html=1;strokeColor=#000000;gradientColor=#ffffff;gradientDirection=west;" parent="qvjjFlWtiX74xY5obH8d-1" vertex="1">
          <mxGeometry x="1036.75" y="-873.5" width="280" height="25" as="geometry" />
        </mxCell>
        <mxCell id="qvjjFlWtiX74xY5obH8d-50" value="Daemon.&lt;b&gt;ServiceBroker&lt;/b&gt;" style="rounded=1;whiteSpace=wrap;html=1;strokeColor=#000000;gradientColor=#ffffff;gradientDirection=west;" parent="qvjjFlWtiX74xY5obH8d-1" vertex="1">
          <mxGeometry x="676.75" y="-873.5" width="300" height="25" as="geometry" />
        </mxCell>
        <mxCell id="qvjjFlWtiX74xY5obH8d-51" value="" style="shape=flexArrow;endArrow=classic;html=1;fillColor=#dae8fc;gradientColor=#ffffff;" parent="qvjjFlWtiX74xY5obH8d-1" edge="1">
          <mxGeometry width="50" height="50" relative="1" as="geometry">
            <mxPoint x="1156.75" y="-842.5" as="sourcePoint" />
            <mxPoint x="1156.75" y="-778.5" as="targetPoint" />
          </mxGeometry>
        </mxCell>
        <mxCell id="qvjjFlWtiX74xY5obH8d-52" value="" style="shape=flexArrow;endArrow=classic;html=1;entryX=0.795;entryY=1.003;entryDx=0;entryDy=0;entryPerimeter=0;fillColor=#dae8fc;gradientColor=#ffffff;exitX=0.536;exitY=0.005;exitDx=0;exitDy=0;exitPerimeter=0;" parent="qvjjFlWtiX74xY5obH8d-1" source="qvjjFlWtiX74xY5obH8d-35" target="qvjjFlWtiX74xY5obH8d-48" edge="1">
          <mxGeometry width="50" height="50" relative="1" as="geometry">
            <mxPoint x="1197.23" y="-833.5" as="sourcePoint" />
            <mxPoint x="1196.75" y="-769.739" as="targetPoint" />
          </mxGeometry>
        </mxCell>
        <mxCell id="qvjjFlWtiX74xY5obH8d-53" value="LiloDash.&lt;b&gt;Presentation&lt;/b&gt;" style="rounded=1;whiteSpace=wrap;html=1;gradientDirection=west;fillColor=#d5e8d4;gradientColor=#ffffff;" parent="qvjjFlWtiX74xY5obH8d-1" vertex="1">
          <mxGeometry x="655.75" y="-943.5" width="681" height="40" as="geometry" />
        </mxCell>
        <mxCell id="qvjjFlWtiX74xY5obH8d-54" value="" style="shape=image;html=1;verticalLabelPosition=bottom;verticalAlign=top;imageAspect=1;aspect=fixed;image=img/clipart/Gear_128x128.png;strokeColor=#000000;gradientColor=#ffffff;gradientDirection=west;" parent="qvjjFlWtiX74xY5obH8d-1" vertex="1">
          <mxGeometry x="699.7" y="-871" width="17.05" height="20" as="geometry" />
        </mxCell>
        <mxCell id="qvjjFlWtiX74xY5obH8d-55" value="Lilo Dash CQRS Diagram" style="text;html=1;align=center;verticalAlign=middle;resizable=0;points=[];autosize=1;strokeColor=none;fillColor=none;fontSize=32;fontStyle=1" parent="qvjjFlWtiX74xY5obH8d-1" vertex="1">
          <mxGeometry x="656.75" y="-1015.5" width="420" height="40" as="geometry" />
        </mxCell>
        <mxCell id="t1DV0-hT5Nglbhx_DQUg-0" value="&lt;div style=&quot;text-align: left&quot;&gt;&lt;span&gt;LiloDash - Deployment Diagram&lt;/span&gt;&lt;/div&gt;&lt;div style=&quot;text-align: left&quot;&gt;&lt;span&gt;Author: Bruno Crema Ferreira&lt;/span&gt;&lt;/div&gt;&lt;div style=&quot;text-align: left&quot;&gt;&lt;span&gt;Last Update: 06/28/2021&lt;/span&gt;&lt;/div&gt;" style="shape=umlFrame;whiteSpace=wrap;html=1;strokeColor=#000000;gradientColor=#ffffff;width=190;height=50;" vertex="1" parent="qvjjFlWtiX74xY5obH8d-1">
          <mxGeometry x="187" y="-1100" width="1279.5" height="1004.5" as="geometry" />
        </mxCell>
      </root>
    </mxGraphModel>
  </diagram>
  <diagram id="aAG26RTuk27g9BVvDFGf" name="k8s">
    <mxGraphModel dx="2074" dy="878" grid="1" gridSize="10" guides="1" tooltips="1" connect="1" arrows="1" fold="1" page="1" pageScale="1" pageWidth="1654" pageHeight="1169" math="0" shadow="0">
      <root>
        <mxCell id="0" />
        <mxCell id="1" parent="0" />
        <mxCell id="OmuPncE2D6tozRoV3BFQ-1" value="&lt;div style=&quot;text-align: left&quot;&gt;&lt;span&gt;LiloDash - Kubernetes Diagram&lt;/span&gt;&lt;/div&gt;&lt;div style=&quot;text-align: left&quot;&gt;&lt;span&gt;Author: Bruno Crema Ferreira&lt;/span&gt;&lt;/div&gt;&lt;div style=&quot;text-align: left&quot;&gt;&lt;span&gt;Last Update: 06/16/2023&lt;/span&gt;&lt;/div&gt;" style="shape=umlFrame;whiteSpace=wrap;html=1;strokeColor=#000000;gradientColor=#ffffff;width=190;height=50;" parent="1" vertex="1">
          <mxGeometry x="220" y="140" width="1280" height="870" as="geometry" />
        </mxCell>
        <mxCell id="ABjkh7kyZBsgYbUY3yFO-2" value="" style="rounded=1;whiteSpace=wrap;html=1;strokeColor=#0000FF;arcSize=4;" parent="1" vertex="1">
          <mxGeometry x="320" y="300" width="920" height="620" as="geometry" />
        </mxCell>
        <mxCell id="ABjkh7kyZBsgYbUY3yFO-1" value="lilo-stack" style="sketch=0;html=1;dashed=0;whitespace=wrap;fillColor=#2875E2;strokeColor=#ffffff;points=[[0.005,0.63,0],[0.1,0.2,0],[0.9,0.2,0],[0.5,0,0],[0.995,0.63,0],[0.72,0.99,0],[0.5,1,0],[0.28,0.99,0]];verticalLabelPosition=bottom;align=center;verticalAlign=top;shape=mxgraph.kubernetes.icon;prIcon=ns" parent="1" vertex="1">
          <mxGeometry x="340" y="277" width="50" height="48" as="geometry" />
        </mxCell>
        <mxCell id="ABjkh7kyZBsgYbUY3yFO-37" style="edgeStyle=orthogonalEdgeStyle;rounded=0;orthogonalLoop=1;jettySize=auto;html=1;" parent="1" source="ABjkh7kyZBsgYbUY3yFO-3" edge="1">
          <mxGeometry relative="1" as="geometry">
            <mxPoint x="860" y="450" as="targetPoint" />
            <Array as="points">
              <mxPoint x="815" y="526" />
              <mxPoint x="815" y="450" />
              <mxPoint x="860" y="450" />
            </Array>
          </mxGeometry>
        </mxCell>
        <mxCell id="ABjkh7kyZBsgYbUY3yFO-3" value="lilo-web-api" style="sketch=0;html=1;dashed=0;whitespace=wrap;fillColor=#2875E2;strokeColor=#ffffff;points=[[0.005,0.63,0],[0.1,0.2,0],[0.9,0.2,0],[0.5,0,0],[0.995,0.63,0],[0.72,0.99,0],[0.5,1,0],[0.28,0.99,0]];verticalLabelPosition=bottom;align=center;verticalAlign=top;shape=mxgraph.kubernetes.icon;prIcon=pod" parent="1" vertex="1">
          <mxGeometry x="720" y="502" width="50" height="48" as="geometry" />
        </mxCell>
        <mxCell id="ABjkh7kyZBsgYbUY3yFO-4" value="lilo-db-pv" style="sketch=0;html=1;dashed=0;whitespace=wrap;fillColor=#2875E2;strokeColor=#ffffff;points=[[0.005,0.63,0],[0.1,0.2,0],[0.9,0.2,0],[0.5,0,0],[0.995,0.63,0],[0.72,0.99,0],[0.5,1,0],[0.28,0.99,0]];verticalLabelPosition=bottom;align=center;verticalAlign=top;shape=mxgraph.kubernetes.icon;prIcon=pv" parent="1" vertex="1">
          <mxGeometry x="1290" y="422" width="50" height="48" as="geometry" />
        </mxCell>
        <mxCell id="ABjkh7kyZBsgYbUY3yFO-8" style="edgeStyle=orthogonalEdgeStyle;rounded=0;orthogonalLoop=1;jettySize=auto;html=1;" parent="1" source="ABjkh7kyZBsgYbUY3yFO-5" target="ABjkh7kyZBsgYbUY3yFO-4" edge="1">
          <mxGeometry relative="1" as="geometry" />
        </mxCell>
        <mxCell id="ABjkh7kyZBsgYbUY3yFO-5" value="lilo-db-pvc" style="sketch=0;html=1;dashed=0;whitespace=wrap;fillColor=#2875E2;strokeColor=#ffffff;points=[[0.005,0.63,0],[0.1,0.2,0],[0.9,0.2,0],[0.5,0,0],[0.995,0.63,0],[0.72,0.99,0],[0.5,1,0],[0.28,0.99,0]];verticalLabelPosition=bottom;align=center;verticalAlign=top;shape=mxgraph.kubernetes.icon;prIcon=pvc" parent="1" vertex="1">
          <mxGeometry x="1120" y="422" width="50" height="48" as="geometry" />
        </mxCell>
        <mxCell id="ABjkh7kyZBsgYbUY3yFO-36" style="edgeStyle=orthogonalEdgeStyle;rounded=0;orthogonalLoop=1;jettySize=auto;html=1;" parent="1" edge="1">
          <mxGeometry relative="1" as="geometry">
            <mxPoint x="770" y="450" as="sourcePoint" />
            <mxPoint x="860" y="450" as="targetPoint" />
            <Array as="points">
              <mxPoint x="780" y="450" />
              <mxPoint x="780" y="450" />
            </Array>
          </mxGeometry>
        </mxCell>
        <mxCell id="ABjkh7kyZBsgYbUY3yFO-46" style="edgeStyle=orthogonalEdgeStyle;rounded=0;orthogonalLoop=1;jettySize=auto;html=1;entryX=0.005;entryY=0.63;entryDx=0;entryDy=0;entryPerimeter=0;exitX=0.995;exitY=0.63;exitDx=0;exitDy=0;exitPerimeter=0;" parent="1" source="ABjkh7kyZBsgYbUY3yFO-6" target="ABjkh7kyZBsgYbUY3yFO-45" edge="1">
          <mxGeometry relative="1" as="geometry">
            <mxPoint x="770" y="450" as="sourcePoint" />
            <Array as="points">
              <mxPoint x="830" y="450" />
              <mxPoint x="830" y="654" />
            </Array>
          </mxGeometry>
        </mxCell>
        <mxCell id="ABjkh7kyZBsgYbUY3yFO-6" value="lilo-web-api" style="sketch=0;html=1;dashed=0;whitespace=wrap;fillColor=#2875E2;strokeColor=#ffffff;points=[[0.005,0.63,0],[0.1,0.2,0],[0.9,0.2,0],[0.5,0,0],[0.995,0.63,0],[0.72,0.99,0],[0.5,1,0],[0.28,0.99,0]];verticalLabelPosition=bottom;align=center;verticalAlign=top;shape=mxgraph.kubernetes.icon;prIcon=pod" parent="1" vertex="1">
          <mxGeometry x="720" y="420" width="50" height="48" as="geometry" />
        </mxCell>
        <mxCell id="ABjkh7kyZBsgYbUY3yFO-35" style="edgeStyle=orthogonalEdgeStyle;rounded=0;orthogonalLoop=1;jettySize=auto;html=1;entryX=0.016;entryY=0.562;entryDx=0;entryDy=0;entryPerimeter=0;" parent="1" source="ABjkh7kyZBsgYbUY3yFO-7" target="ABjkh7kyZBsgYbUY3yFO-28" edge="1">
          <mxGeometry relative="1" as="geometry">
            <Array as="points">
              <mxPoint x="815" y="364" />
              <mxPoint x="815" y="450" />
              <mxPoint x="861" y="450" />
            </Array>
          </mxGeometry>
        </mxCell>
        <mxCell id="ABjkh7kyZBsgYbUY3yFO-7" value="lilo-web-api" style="sketch=0;html=1;dashed=0;whitespace=wrap;fillColor=#2875E2;strokeColor=#ffffff;points=[[0.005,0.63,0],[0.1,0.2,0],[0.9,0.2,0],[0.5,0,0],[0.995,0.63,0],[0.72,0.99,0],[0.5,1,0],[0.28,0.99,0]];verticalLabelPosition=bottom;align=center;verticalAlign=top;shape=mxgraph.kubernetes.icon;prIcon=pod" parent="1" vertex="1">
          <mxGeometry x="720" y="340" width="50" height="48" as="geometry" />
        </mxCell>
        <mxCell id="ABjkh7kyZBsgYbUY3yFO-20" style="edgeStyle=orthogonalEdgeStyle;rounded=0;orthogonalLoop=1;jettySize=auto;html=1;entryX=0.005;entryY=0.63;entryDx=0;entryDy=0;entryPerimeter=0;" parent="1" source="ABjkh7kyZBsgYbUY3yFO-9" target="ABjkh7kyZBsgYbUY3yFO-7" edge="1">
          <mxGeometry relative="1" as="geometry" />
        </mxCell>
        <mxCell id="ABjkh7kyZBsgYbUY3yFO-22" style="edgeStyle=orthogonalEdgeStyle;rounded=0;orthogonalLoop=1;jettySize=auto;html=1;entryX=0.005;entryY=0.63;entryDx=0;entryDy=0;entryPerimeter=0;" parent="1" source="ABjkh7kyZBsgYbUY3yFO-9" target="ABjkh7kyZBsgYbUY3yFO-3" edge="1">
          <mxGeometry relative="1" as="geometry">
            <Array as="points">
              <mxPoint x="680" y="441" />
              <mxPoint x="680" y="532" />
            </Array>
          </mxGeometry>
        </mxCell>
        <mxCell id="ABjkh7kyZBsgYbUY3yFO-9" value="lilo-web-api-deployment" style="sketch=0;html=1;dashed=0;whitespace=wrap;fillColor=#2875E2;strokeColor=#ffffff;points=[[0.005,0.63,0],[0.1,0.2,0],[0.9,0.2,0],[0.5,0,0],[0.995,0.63,0],[0.72,0.99,0],[0.5,1,0],[0.28,0.99,0]];verticalLabelPosition=bottom;align=center;verticalAlign=top;shape=mxgraph.kubernetes.icon;prIcon=deploy" parent="1" vertex="1">
          <mxGeometry x="590" y="417" width="50" height="48" as="geometry" />
        </mxCell>
        <mxCell id="ABjkh7kyZBsgYbUY3yFO-26" style="edgeStyle=orthogonalEdgeStyle;rounded=0;orthogonalLoop=1;jettySize=auto;html=1;" parent="1" source="ABjkh7kyZBsgYbUY3yFO-10" target="ABjkh7kyZBsgYbUY3yFO-9" edge="1">
          <mxGeometry relative="1" as="geometry" />
        </mxCell>
        <mxCell id="ABjkh7kyZBsgYbUY3yFO-10" value="lilo-web-api-load-balanceservice" style="sketch=0;html=1;dashed=0;whitespace=wrap;fillColor=#2875E2;strokeColor=#ffffff;points=[[0.005,0.63,0],[0.1,0.2,0],[0.9,0.2,0],[0.5,0,0],[0.995,0.63,0],[0.72,0.99,0],[0.5,1,0],[0.28,0.99,0]];verticalLabelPosition=bottom;align=center;verticalAlign=top;shape=mxgraph.kubernetes.icon;prIcon=svc" parent="1" vertex="1">
          <mxGeometry x="410" y="417" width="50" height="48" as="geometry" />
        </mxCell>
        <mxCell id="ABjkh7kyZBsgYbUY3yFO-11" value="lilo-db-secret" style="sketch=0;html=1;dashed=0;whitespace=wrap;fillColor=#2875E2;strokeColor=#ffffff;points=[[0.005,0.63,0],[0.1,0.2,0],[0.9,0.2,0],[0.5,0,0],[0.995,0.63,0],[0.72,0.99,0],[0.5,1,0],[0.28,0.99,0]];verticalLabelPosition=bottom;align=center;verticalAlign=top;shape=mxgraph.kubernetes.icon;prIcon=secret" parent="1" vertex="1">
          <mxGeometry x="1120" y="327" width="50" height="48" as="geometry" />
        </mxCell>
        <mxCell id="ABjkh7kyZBsgYbUY3yFO-13" value="lilo-db-config-map" style="sketch=0;html=1;dashed=0;whitespace=wrap;fillColor=#2875E2;strokeColor=#ffffff;points=[[0.005,0.63,0],[0.1,0.2,0],[0.9,0.2,0],[0.5,0,0],[0.995,0.63,0],[0.72,0.99,0],[0.5,1,0],[0.28,0.99,0]];verticalLabelPosition=bottom;align=center;verticalAlign=top;shape=mxgraph.kubernetes.icon;prIcon=cm" parent="1" vertex="1">
          <mxGeometry x="910" y="502" width="50" height="48" as="geometry" />
        </mxCell>
        <mxCell id="ABjkh7kyZBsgYbUY3yFO-19" style="edgeStyle=orthogonalEdgeStyle;rounded=0;orthogonalLoop=1;jettySize=auto;html=1;" parent="1" source="ABjkh7kyZBsgYbUY3yFO-17" target="ABjkh7kyZBsgYbUY3yFO-5" edge="1">
          <mxGeometry relative="1" as="geometry" />
        </mxCell>
        <mxCell id="ABjkh7kyZBsgYbUY3yFO-17" value="lilo-db-0" style="sketch=0;html=1;dashed=0;whitespace=wrap;fillColor=#2875E2;strokeColor=#ffffff;points=[[0.005,0.63,0],[0.1,0.2,0],[0.9,0.2,0],[0.5,0,0],[0.995,0.63,0],[0.72,0.99,0],[0.5,1,0],[0.28,0.99,0]];verticalLabelPosition=bottom;align=center;verticalAlign=top;shape=mxgraph.kubernetes.icon;prIcon=pod" parent="1" vertex="1">
          <mxGeometry x="990" y="422" width="50" height="48" as="geometry" />
        </mxCell>
        <mxCell id="ABjkh7kyZBsgYbUY3yFO-21" style="edgeStyle=orthogonalEdgeStyle;rounded=0;orthogonalLoop=1;jettySize=auto;html=1;exitX=0.96;exitY=0.542;exitDx=0;exitDy=0;exitPerimeter=0;" parent="1" source="ABjkh7kyZBsgYbUY3yFO-9" edge="1">
          <mxGeometry relative="1" as="geometry">
            <mxPoint x="720" y="440" as="targetPoint" />
            <Array as="points">
              <mxPoint x="638" y="440" />
            </Array>
          </mxGeometry>
        </mxCell>
        <mxCell id="ABjkh7kyZBsgYbUY3yFO-24" value="" style="endArrow=none;html=1;rounded=0;exitX=0.857;exitY=0.323;exitDx=0;exitDy=0;exitPerimeter=0;" parent="1" source="ABjkh7kyZBsgYbUY3yFO-13" edge="1">
          <mxGeometry width="50" height="50" relative="1" as="geometry">
            <mxPoint x="950" y="512" as="sourcePoint" />
            <mxPoint x="1000" y="462" as="targetPoint" />
          </mxGeometry>
        </mxCell>
        <mxCell id="ABjkh7kyZBsgYbUY3yFO-27" style="edgeStyle=orthogonalEdgeStyle;rounded=0;orthogonalLoop=1;jettySize=auto;html=1;" parent="1" target="ABjkh7kyZBsgYbUY3yFO-17" edge="1">
          <mxGeometry relative="1" as="geometry">
            <mxPoint x="910" y="446" as="sourcePoint" />
          </mxGeometry>
        </mxCell>
        <mxCell id="ABjkh7kyZBsgYbUY3yFO-28" value="lilo-db-service" style="sketch=0;html=1;dashed=0;whitespace=wrap;fillColor=#2875E2;strokeColor=#ffffff;points=[[0.005,0.63,0],[0.1,0.2,0],[0.9,0.2,0],[0.5,0,0],[0.995,0.63,0],[0.72,0.99,0],[0.5,1,0],[0.28,0.99,0]];verticalLabelPosition=bottom;align=center;verticalAlign=top;shape=mxgraph.kubernetes.icon;prIcon=svc" parent="1" vertex="1">
          <mxGeometry x="860" y="424" width="50" height="48" as="geometry" />
        </mxCell>
        <mxCell id="ABjkh7kyZBsgYbUY3yFO-31" value="lilo-web-app-config-map" style="sketch=0;html=1;dashed=0;whitespace=wrap;fillColor=#2875E2;strokeColor=#ffffff;points=[[0.005,0.63,0],[0.1,0.2,0],[0.9,0.2,0],[0.5,0,0],[0.995,0.63,0],[0.72,0.99,0],[0.5,1,0],[0.28,0.99,0]];verticalLabelPosition=bottom;align=center;verticalAlign=top;shape=mxgraph.kubernetes.icon;prIcon=cm" parent="1" vertex="1">
          <mxGeometry x="450" y="325" width="50" height="48" as="geometry" />
        </mxCell>
        <mxCell id="ABjkh7kyZBsgYbUY3yFO-32" value="" style="endArrow=none;html=1;rounded=0;exitX=0.995;exitY=0.63;exitDx=0;exitDy=0;exitPerimeter=0;entryX=0.5;entryY=0;entryDx=0;entryDy=0;entryPerimeter=0;" parent="1" source="ABjkh7kyZBsgYbUY3yFO-31" target="ABjkh7kyZBsgYbUY3yFO-9" edge="1">
          <mxGeometry width="50" height="50" relative="1" as="geometry">
            <mxPoint x="630" y="390" as="sourcePoint" />
            <mxPoint x="680" y="340" as="targetPoint" />
          </mxGeometry>
        </mxCell>
        <mxCell id="ABjkh7kyZBsgYbUY3yFO-34" value="" style="endArrow=none;html=1;rounded=0;entryX=0.005;entryY=0.63;entryDx=0;entryDy=0;entryPerimeter=0;exitX=0.9;exitY=0.2;exitDx=0;exitDy=0;exitPerimeter=0;" parent="1" source="ABjkh7kyZBsgYbUY3yFO-17" target="ABjkh7kyZBsgYbUY3yFO-11" edge="1">
          <mxGeometry width="50" height="50" relative="1" as="geometry">
            <mxPoint x="1040" y="410" as="sourcePoint" />
            <mxPoint x="1090" y="360" as="targetPoint" />
          </mxGeometry>
        </mxCell>
        <mxCell id="ABjkh7kyZBsgYbUY3yFO-43" style="edgeStyle=orthogonalEdgeStyle;rounded=0;orthogonalLoop=1;jettySize=auto;html=1;entryX=0.005;entryY=0.63;entryDx=0;entryDy=0;entryPerimeter=0;" parent="1" target="ABjkh7kyZBsgYbUY3yFO-42" edge="1">
          <mxGeometry relative="1" as="geometry">
            <mxPoint x="1040" y="650" as="sourcePoint" />
          </mxGeometry>
        </mxCell>
        <mxCell id="ABjkh7kyZBsgYbUY3yFO-38" value="rabbitmq-0" style="sketch=0;html=1;dashed=0;whitespace=wrap;fillColor=#2875E2;strokeColor=#ffffff;points=[[0.005,0.63,0],[0.1,0.2,0],[0.9,0.2,0],[0.5,0,0],[0.995,0.63,0],[0.72,0.99,0],[0.5,1,0],[0.28,0.99,0]];verticalLabelPosition=bottom;align=center;verticalAlign=top;shape=mxgraph.kubernetes.icon;prIcon=pod" parent="1" vertex="1">
          <mxGeometry x="990" y="624" width="50" height="48" as="geometry" />
        </mxCell>
        <mxCell id="ABjkh7kyZBsgYbUY3yFO-40" value="lilo-rabbit-pv" style="sketch=0;html=1;dashed=0;whitespace=wrap;fillColor=#2875E2;strokeColor=#ffffff;points=[[0.005,0.63,0],[0.1,0.2,0],[0.9,0.2,0],[0.5,0,0],[0.995,0.63,0],[0.72,0.99,0],[0.5,1,0],[0.28,0.99,0]];verticalLabelPosition=bottom;align=center;verticalAlign=top;shape=mxgraph.kubernetes.icon;prIcon=pv" parent="1" vertex="1">
          <mxGeometry x="1290" y="620" width="50" height="48" as="geometry" />
        </mxCell>
        <mxCell id="ABjkh7kyZBsgYbUY3yFO-41" style="edgeStyle=orthogonalEdgeStyle;rounded=0;orthogonalLoop=1;jettySize=auto;html=1;" parent="1" source="ABjkh7kyZBsgYbUY3yFO-42" target="ABjkh7kyZBsgYbUY3yFO-40" edge="1">
          <mxGeometry relative="1" as="geometry" />
        </mxCell>
        <mxCell id="ABjkh7kyZBsgYbUY3yFO-42" value="lilo-rabbit-pvc" style="sketch=0;html=1;dashed=0;whitespace=wrap;fillColor=#2875E2;strokeColor=#ffffff;points=[[0.005,0.63,0],[0.1,0.2,0],[0.9,0.2,0],[0.5,0,0],[0.995,0.63,0],[0.72,0.99,0],[0.5,1,0],[0.28,0.99,0]];verticalLabelPosition=bottom;align=center;verticalAlign=top;shape=mxgraph.kubernetes.icon;prIcon=pvc" parent="1" vertex="1">
          <mxGeometry x="1120" y="620" width="50" height="48" as="geometry" />
        </mxCell>
        <mxCell id="ABjkh7kyZBsgYbUY3yFO-47" style="edgeStyle=orthogonalEdgeStyle;rounded=0;orthogonalLoop=1;jettySize=auto;html=1;entryX=0.053;entryY=0.5;entryDx=0;entryDy=0;entryPerimeter=0;" parent="1" source="ABjkh7kyZBsgYbUY3yFO-45" target="ABjkh7kyZBsgYbUY3yFO-38" edge="1">
          <mxGeometry relative="1" as="geometry">
            <mxPoint x="990" y="648" as="targetPoint" />
          </mxGeometry>
        </mxCell>
        <mxCell id="ABjkh7kyZBsgYbUY3yFO-45" value="lilo-db-service" style="sketch=0;html=1;dashed=0;whitespace=wrap;fillColor=#2875E2;strokeColor=#ffffff;points=[[0.005,0.63,0],[0.1,0.2,0],[0.9,0.2,0],[0.5,0,0],[0.995,0.63,0],[0.72,0.99,0],[0.5,1,0],[0.28,0.99,0]];verticalLabelPosition=bottom;align=center;verticalAlign=top;shape=mxgraph.kubernetes.icon;prIcon=svc" parent="1" vertex="1">
          <mxGeometry x="890" y="624" width="50" height="48" as="geometry" />
        </mxCell>
        <mxCell id="ABjkh7kyZBsgYbUY3yFO-53" style="edgeStyle=orthogonalEdgeStyle;rounded=0;orthogonalLoop=1;jettySize=auto;html=1;entryX=0.005;entryY=0.63;entryDx=0;entryDy=0;entryPerimeter=0;" parent="1" source="ABjkh7kyZBsgYbUY3yFO-49" target="ABjkh7kyZBsgYbUY3yFO-51" edge="1">
          <mxGeometry relative="1" as="geometry" />
        </mxCell>
        <mxCell id="ABjkh7kyZBsgYbUY3yFO-49" value="lilo-broker-consumer-deployment" style="sketch=0;html=1;dashed=0;whitespace=wrap;fillColor=#2875E2;strokeColor=#ffffff;points=[[0.005,0.63,0],[0.1,0.2,0],[0.9,0.2,0],[0.5,0,0],[0.995,0.63,0],[0.72,0.99,0],[0.5,1,0],[0.28,0.99,0]];verticalLabelPosition=bottom;align=center;verticalAlign=top;shape=mxgraph.kubernetes.icon;prIcon=deploy" parent="1" vertex="1">
          <mxGeometry x="560" y="766" width="50" height="48" as="geometry" />
        </mxCell>
        <mxCell id="ABjkh7kyZBsgYbUY3yFO-50" value="lilo-broker-consumer" style="sketch=0;html=1;dashed=0;whitespace=wrap;fillColor=#2875E2;strokeColor=#ffffff;points=[[0.005,0.63,0],[0.1,0.2,0],[0.9,0.2,0],[0.5,0,0],[0.995,0.63,0],[0.72,0.99,0],[0.5,1,0],[0.28,0.99,0]];verticalLabelPosition=bottom;align=center;verticalAlign=top;shape=mxgraph.kubernetes.icon;prIcon=pod" parent="1" vertex="1">
          <mxGeometry x="755" y="680" width="50" height="48" as="geometry" />
        </mxCell>
        <mxCell id="ABjkh7kyZBsgYbUY3yFO-51" value="lilo-broker-consumer" style="sketch=0;html=1;dashed=0;whitespace=wrap;fillColor=#2875E2;strokeColor=#ffffff;points=[[0.005,0.63,0],[0.1,0.2,0],[0.9,0.2,0],[0.5,0,0],[0.995,0.63,0],[0.72,0.99,0],[0.5,1,0],[0.28,0.99,0]];verticalLabelPosition=bottom;align=center;verticalAlign=top;shape=mxgraph.kubernetes.icon;prIcon=pod" parent="1" vertex="1">
          <mxGeometry x="755" y="760" width="50" height="48" as="geometry" />
        </mxCell>
        <mxCell id="ABjkh7kyZBsgYbUY3yFO-52" value="lilo-broker-consumer" style="sketch=0;html=1;dashed=0;whitespace=wrap;fillColor=#2875E2;strokeColor=#ffffff;points=[[0.005,0.63,0],[0.1,0.2,0],[0.9,0.2,0],[0.5,0,0],[0.995,0.63,0],[0.72,0.99,0],[0.5,1,0],[0.28,0.99,0]];verticalLabelPosition=bottom;align=center;verticalAlign=top;shape=mxgraph.kubernetes.icon;prIcon=pod" parent="1" vertex="1">
          <mxGeometry x="755" y="840" width="50" height="48" as="geometry" />
        </mxCell>
        <mxCell id="ABjkh7kyZBsgYbUY3yFO-57" value="" style="endArrow=classic;html=1;rounded=0;exitX=0.995;exitY=0.63;exitDx=0;exitDy=0;exitPerimeter=0;entryX=0.5;entryY=1;entryDx=0;entryDy=0;entryPerimeter=0;" parent="1" source="ABjkh7kyZBsgYbUY3yFO-51" target="ABjkh7kyZBsgYbUY3yFO-45" edge="1">
          <mxGeometry width="50" height="50" relative="1" as="geometry">
            <mxPoint x="850" y="810" as="sourcePoint" />
            <mxPoint x="900" y="760" as="targetPoint" />
            <Array as="points">
              <mxPoint x="915" y="790" />
            </Array>
          </mxGeometry>
        </mxCell>
        <mxCell id="ABjkh7kyZBsgYbUY3yFO-58" value="" style="endArrow=none;html=1;rounded=0;exitX=0.995;exitY=0.63;exitDx=0;exitDy=0;exitPerimeter=0;entryX=0.995;entryY=0.63;entryDx=0;entryDy=0;entryPerimeter=0;" parent="1" source="ABjkh7kyZBsgYbUY3yFO-50" target="ABjkh7kyZBsgYbUY3yFO-52" edge="1">
          <mxGeometry width="50" height="50" relative="1" as="geometry">
            <mxPoint x="820" y="750" as="sourcePoint" />
            <mxPoint x="870" y="700" as="targetPoint" />
            <Array as="points">
              <mxPoint x="850" y="710" />
              <mxPoint x="850" y="870" />
            </Array>
          </mxGeometry>
        </mxCell>
        <mxCell id="ABjkh7kyZBsgYbUY3yFO-59" value="" style="endArrow=block;html=1;rounded=0;entryX=0.005;entryY=0.63;entryDx=0;entryDy=0;entryPerimeter=0;exitX=0.005;exitY=0.63;exitDx=0;exitDy=0;exitPerimeter=0;startArrow=block;startFill=1;endFill=1;" parent="1" source="ABjkh7kyZBsgYbUY3yFO-52" target="ABjkh7kyZBsgYbUY3yFO-50" edge="1">
          <mxGeometry width="50" height="50" relative="1" as="geometry">
            <mxPoint x="680" y="770" as="sourcePoint" />
            <mxPoint x="730" y="720" as="targetPoint" />
            <Array as="points">
              <mxPoint x="690" y="870" />
              <mxPoint x="690" y="710" />
            </Array>
          </mxGeometry>
        </mxCell>
        <mxCell id="ABjkh7kyZBsgYbUY3yFO-60" value="lilo-broker-consumer-config-map" style="sketch=0;html=1;dashed=0;whitespace=wrap;fillColor=#2875E2;strokeColor=#ffffff;points=[[0.005,0.63,0],[0.1,0.2,0],[0.9,0.2,0],[0.5,0,0],[0.995,0.63,0],[0.72,0.99,0],[0.5,1,0],[0.28,0.99,0]];verticalLabelPosition=bottom;align=center;verticalAlign=top;shape=mxgraph.kubernetes.icon;prIcon=cm" parent="1" vertex="1">
          <mxGeometry x="430" y="690" width="50" height="48" as="geometry" />
        </mxCell>
        <mxCell id="ABjkh7kyZBsgYbUY3yFO-61" value="" style="endArrow=none;html=1;rounded=0;exitX=0.995;exitY=0.63;exitDx=0;exitDy=0;exitPerimeter=0;entryX=0.5;entryY=0;entryDx=0;entryDy=0;entryPerimeter=0;" parent="1" source="ABjkh7kyZBsgYbUY3yFO-60" target="ABjkh7kyZBsgYbUY3yFO-49" edge="1">
          <mxGeometry width="50" height="50" relative="1" as="geometry">
            <mxPoint x="600" y="740" as="sourcePoint" />
            <mxPoint x="650" y="690" as="targetPoint" />
          </mxGeometry>
        </mxCell>
      </root>
    </mxGraphModel>
  </diagram>
</mxfile>
